<?xml version="1.0" standalone="no"?>
<!DOCTYPE svg PUBLIC "-//W3C//DTD SVG 20010904//EN"
 "http://www.w3.org/TR/2001/REC-SVG-20010904/DTD/svg10.dtd">
<svg version="1.0" xmlns="http://www.w3.org/2000/svg"
 width="300.000000pt" height="303.000000pt" viewBox="0 0 300.000000 303.000000"
 preserveAspectRatio="xMidYMid meet">
<metadata>
Created by potrace 1.10, written by Peter Selinger 2001-2011
</metadata>
<g transform="translate(0.000000,303.000000) scale(0.100000,-0.100000)"
fill="#000000" stroke="none">
<path d="M1330 2989 c-14 -6 -68 -17 -120 -25 -83 -12 -216 -48 -275 -73 -85
-37 -179 -88 -200 -109 -29 -29 -31 -44 -9 -62 13 -11 31 -5 113 37 316 165
663 202 1033 111 104 -25 130 -29 143 -18 20 17 19 25 -6 49 -23 21 -208 71
-264 71 -20 0 -51 6 -69 14 -41 17 -308 21 -346 5z m423 -44 c106 -17 257 -62
257 -75 0 -14 -6 -13 -80 11 -241 77 -580 80 -839 8 -94 -26 -217 -78 -293
-124 -68 -40 -68 -40 -68 -21 0 21 227 130 333 160 79 23 206 48 307 60 63 8
293 -3 383 -19z"/>
<path d="M602 2695 c-94 -74 -177 -153 -241 -230 -96 -114 -191 -260 -191
-295 0 -5 11 -19 25 -32 l24 -23 1 -280 c2 -830 1 -910 -13 -895 -8 8 -24 41
-37 72 -23 60 -49 79 -76 57 -26 -22 -3 -95 83 -264 59 -117 198 -303 253
-338 26 -16 29 -16 44 -2 9 9 16 22 16 30 0 7 -28 47 -63 88 -121 142 -109 85
-111 507 -1 262 2 371 10 374 6 2 119 -67 250 -153 131 -87 319 -210 417 -274
97 -64 182 -117 187 -117 6 0 10 -4 10 -8 0 -4 19 -20 43 -35 23 -15 47 -35
53 -44 7 -12 12 -127 12 -348 1 -182 4 -342 8 -358 5 -22 2 -27 -14 -27 -43 0
-254 60 -347 99 -110 46 -130 49 -144 22 -8 -14 -5 -23 17 -43 57 -52 260
-122 410 -140 63 -8 87 -15 71 -19 -17 -4 -5 -8 42 -13 73 -9 109 -6 111 9 1
6 8 16 17 23 14 11 14 14 -8 32 -13 11 -38 20 -57 20 -35 0 -50 12 -37 33 12
20 13 24 13 525 1 365 4 482 13 482 7 0 39 -40 71 -88 33 -48 96 -140 140
-205 45 -65 88 -128 96 -141 8 -13 40 -59 71 -103 30 -43 95 -139 144 -213 49
-74 95 -141 102 -148 24 -25 13 -41 -44 -69 -64 -31 -72 -43 -47 -67 22 -22
53 -15 172 36 91 40 232 123 309 182 67 52 238 229 296 307 70 94 141 217 163
282 15 45 15 50 0 65 -24 25 -45 6 -88 -77 -100 -196 -226 -351 -403 -497 -88
-72 -206 -144 -235 -144 -6 0 -10 197 -10 519 0 486 -1 520 -18 541 -16 19
-22 21 -40 11 -19 -10 -22 -20 -22 -84 0 -40 0 -246 0 -459 -1 -245 -4 -388
-10 -388 -6 0 -10 5 -10 10 0 6 -6 10 -14 10 -8 0 -18 10 -22 23 -4 12 -10 24
-15 27 -4 3 -44 59 -89 125 -162 240 -231 341 -280 413 -28 40 -50 78 -50 85
0 7 9 18 19 24 11 7 34 40 52 74 40 74 50 61 19 -23 -22 -60 -22 -61 -3 -80
19 -18 20 -18 46 2 17 14 34 44 48 88 19 63 20 80 14 297 -9 274 -15 259 109
260 66 0 88 4 117 23 20 12 46 22 59 22 12 0 34 13 48 28 15 16 37 34 50 41
13 7 22 21 22 34 0 12 7 33 16 45 12 18 13 26 4 37 -6 8 -9 24 -5 35 5 17 12
20 32 15 14 -3 31 -1 39 6 11 9 5 21 -31 66 -25 30 -45 60 -45 67 0 18 -58 84
-80 91 -11 4 -20 15 -20 25 0 32 -11 49 -45 70 -19 12 -37 30 -40 40 -8 25
-39 34 -66 20 -25 -14 -77 -4 -62 11 11 11 -5 71 -23 89 -6 6 -46 13 -89 16
-44 4 -86 11 -92 17 -9 6 -30 4 -65 -8 -73 -24 -164 -22 -192 4 -19 18 -25 19
-59 7 -47 -16 -55 -24 -59 -61 -3 -31 -28 -49 -80 -60 -15 -3 -29 -14 -33 -25
-4 -11 -18 -34 -32 -50 -21 -25 -23 -35 -16 -58 7 -20 5 -37 -9 -69 -10 -24
-23 -44 -28 -44 -6 -1 -13 -2 -17 -3 -11 -2 -305 -210 -354 -250 -9 -8 -50
-37 -90 -65 -41 -28 -121 -84 -178 -126 -57 -41 -107 -75 -112 -75 -8 0 -11
170 -9 504 l1 140 44 60 c55 77 160 186 250 261 87 73 96 84 84 107 -15 27
-50 21 -97 -17z m88 8 c-1 -5 -26 -26 -57 -48 -80 -57 -218 -197 -288 -290
l-60 -80 3 -358 2 -358 58 44 c145 110 720 517 731 517 9 0 11 -9 6 -28 -9
-41 15 -59 55 -42 16 7 30 16 30 21 0 5 9 9 20 9 24 0 26 15 4 24 -26 10 -54
-3 -54 -25 0 -10 -4 -19 -10 -19 -5 0 -10 9 -10 19 0 11 -6 21 -12 24 -9 3 -7
11 7 27 11 12 19 31 17 41 -2 13 5 22 23 29 23 9 25 12 14 32 -6 13 -18 30
-26 39 -12 14 -10 18 13 33 29 20 49 12 21 -8 -23 -18 -21 -27 6 -22 23 4 24
8 12 69 -5 25 -4 37 4 37 6 0 11 -12 12 -27 l1 -28 10 28 c12 33 34 37 23 5
-17 -55 3 -98 46 -98 10 0 33 -9 53 -20 42 -26 52 -14 21 23 -19 21 -33 27
-63 27 -35 0 -39 3 -39 24 0 14 6 27 13 30 9 4 12 15 8 34 -5 22 -2 31 12 36
9 4 21 2 24 -5 5 -8 9 -8 14 0 4 6 -3 24 -15 41 -13 16 -19 33 -15 37 4 4 15
-3 25 -16 l18 -24 6 32 c4 17 12 31 18 31 11 0 8 -35 -6 -72 -11 -28 10 -21
23 7 6 14 16 25 22 25 13 0 13 -3 -7 -45 -16 -34 -11 -64 7 -35 7 11 14 12 34
2 22 -10 26 -9 26 5 0 9 -10 27 -22 40 -12 13 -17 23 -11 23 6 0 17 2 25 5 8
3 18 -7 27 -26 13 -30 36 -47 48 -35 3 3 -1 14 -10 24 -10 10 -17 24 -17 30 0
21 20 13 32 -13 13 -29 28 -24 28 11 0 14 6 24 15 24 9 0 12 -6 9 -17 -4 -10
5 -4 19 12 14 17 29 27 33 22 4 -4 -4 -20 -17 -35 -14 -15 -32 -36 -40 -46
-16 -23 -11 -21 56 24 59 39 63 41 69 31 3 -5 -15 -21 -40 -36 -25 -15 -43
-29 -40 -32 3 -4 2 -11 -2 -18 -4 -6 4 1 17 17 l23 28 28 -30 c16 -17 31 -36
33 -43 3 -6 6 3 6 21 1 17 -3 32 -9 32 -5 0 -7 14 -3 33 7 40 23 60 23 29 0
-12 5 -22 11 -22 5 0 7 -5 3 -11 -4 -7 7 -1 24 11 18 13 35 20 39 16 5 -4 0
-13 -10 -20 -25 -19 -21 -34 8 -28 36 6 31 -7 -10 -24 -19 -8 -35 -20 -35 -28
0 -7 -10 -21 -22 -29 -23 -16 -23 -16 13 -16 l37 -1 -6 -45 c-3 -27 -1 -45 5
-45 14 0 24 54 17 90 -4 19 -2 30 5 30 6 0 12 -15 13 -32 l1 -33 4 33 c4 34
22 45 24 15 1 -10 1 -21 0 -25 -2 -17 13 -6 44 30 41 46 51 39 25 -16 -11 -22
-20 -44 -20 -47 0 -11 31 -5 34 8 13 40 17 48 25 42 6 -3 4 -22 -5 -47 -18
-52 -18 -64 1 -48 8 7 15 23 15 36 0 25 21 45 28 26 2 -7 11 -12 19 -12 14 0
14 -2 -1 -19 -9 -10 -14 -25 -10 -35 4 -10 -1 -25 -11 -36 -23 -26 -7 -25 25
0 30 23 40 25 40 6 0 -7 -9 -16 -20 -19 -15 -4 -20 -14 -20 -38 0 -31 1 -32
15 -13 12 16 14 16 15 3 0 -9 -7 -22 -15 -29 -8 -7 -15 -17 -15 -23 0 -29 42
35 47 72 3 22 10 41 16 41 5 0 7 -13 3 -31 -5 -27 -4 -30 9 -19 18 15 20 14
29 -22 5 -21 2 -28 -14 -33 -11 -3 -24 -4 -29 -1 -5 3 -14 0 -20 -8 -9 -11 -9
-15 1 -19 10 -4 10 -7 1 -18 -15 -15 0 -39 25 -39 12 0 13 3 4 12 -15 15 -16
58 -2 58 6 0 10 -4 10 -10 0 -14 26 -13 50 2 10 7 23 9 27 4 11 -11 -26 -36
-56 -37 -26 -1 -26 -1 -3 -8 23 -6 23 -7 -18 -54 -24 -26 -40 -50 -37 -53 2
-3 21 4 40 15 49 27 59 7 11 -21 -35 -21 -36 -22 -16 -31 35 -16 25 -28 -15
-22 -28 5 -34 4 -23 -4 17 -12 15 -15 -25 -29 -26 -9 -27 -11 -7 -11 12 -1 22
-5 22 -11 0 -13 -46 -13 -69 0 -18 9 -93 -8 -129 -30 -13 -8 -1 -9 46 -4 38 3
62 2 62 -4 0 -20 -127 -31 -146 -12 -8 8 -26 5 -60 -7 l-49 -19 -3 -117 c-1
-64 2 -158 7 -209 14 -145 -20 -318 -63 -318 -20 0 -20 9 -1 30 8 8 21 42 30
75 13 51 15 94 8 285 l-8 225 -6 -165 c-5 -155 -7 -169 -36 -235 -59 -137 -85
-185 -99 -185 -8 0 -14 1 -14 3 0 2 17 37 38 78 l37 74 -1 160 c0 116 -5 177
-17 223 -9 35 -17 72 -17 82 0 9 -6 23 -14 29 -11 9 -15 5 -21 -21 -6 -28 -8
-30 -14 -14 -7 19 -8 18 -15 -5 -6 -21 -8 -22 -15 -6 -6 17 -8 17 -20 4 -9
-12 -10 -21 -2 -36 16 -28 14 -33 -10 -26 -17 6 -20 4 -15 -12 4 -13 -2 -23
-20 -34 -25 -15 -28 -15 -46 3 -20 20 -20 20 1 42 27 29 26 36 -4 36 -14 0
-25 5 -25 11 0 7 -10 5 -25 -5 -35 -23 -52 -20 -29 5 l19 21 -46 -7 c-30 -4
-49 -3 -53 4 -5 7 7 11 33 11 24 0 41 5 41 11 0 8 -15 10 -43 7 -29 -3 -47 -1
-56 9 -9 10 -16 11 -25 4 -9 -8 -22 -1 -46 24 -19 19 -30 35 -25 35 5 0 -4 13
-20 30 -16 16 -26 33 -22 36 4 4 -1 12 -10 19 -20 15 -9 35 19 35 13 0 18 5
15 14 -3 7 -1 18 5 24 7 7 7 16 0 28 -9 16 -11 16 -23 -4 -16 -25 -29 -29 -29
-7 0 8 9 19 21 25 19 11 20 13 4 30 -16 17 -19 16 -78 -29 -34 -25 -196 -143
-360 -260 -164 -118 -294 -217 -290 -222 4 -4 227 -151 496 -327 l487 -321 0
189 c0 182 1 190 21 201 14 7 24 8 31 1 10 -10 244 -351 533 -777 l160 -236 3
516 c2 485 3 516 20 513 16 -3 17 -39 19 -538 1 -294 3 -543 3 -552 0 -26 14
-23 93 24 267 155 528 441 618 678 16 43 39 65 39 38 0 -22 -66 -154 -116
-231 -176 -272 -443 -491 -732 -601 -79 -30 -82 -31 -82 -11 0 8 7 15 15 15 8
0 44 12 79 26 l65 26 -34 46 c-19 26 -178 258 -354 517 -176 259 -326 478
-333 488 -11 15 -13 -79 -13 -545 0 -494 -2 -563 -15 -563 -13 0 -15 48 -18
365 l-2 365 -297 195 c-163 107 -394 259 -512 337 l-216 142 -3 -381 c-1 -252
-6 -386 -13 -394 -12 -15 69 -131 153 -221 27 -28 45 -54 39 -57 -12 -8 -88
72 -163 173 -52 68 -179 305 -191 356 -3 11 -8 28 -12 38 -5 11 -3 17 7 17 9
0 21 -22 31 -53 9 -29 37 -93 61 -142 l45 -90 0 723 c1 397 -1 722 -4 722 -2
0 -12 -16 -21 -35 -15 -33 -34 -47 -34 -25 0 40 189 298 287 391 112 107 214
180 213 152z m332 -733 c-1 -14 -3 -33 -3 -43 0 -20 76 -144 101 -164 38 -32
194 -103 211 -98 15 5 19 1 19 -18 0 -33 43 -71 72 -64 28 7 85 61 93 88 4 10
14 19 24 19 27 0 41 -64 48 -221 6 -139 -5 -205 -42 -264 -7 -12 -14 -29 -16
-39 -4 -16 -6 -16 -30 6 -15 12 -38 41 -51 63 -47 75 -89 95 -127 61 -20 -18
-21 -29 -21 -173 0 -133 -2 -153 -16 -153 -20 0 -74 31 -74 43 0 4 -5 5 -10 2
-5 -3 -10 -1 -10 4 0 6 -5 11 -10 11 -6 0 -47 25 -91 55 -44 30 -82 55 -85 55
-8 0 -69 44 -72 52 -2 4 -26 20 -53 34 -27 15 -49 31 -49 36 0 4 -5 8 -11 8
-22 0 -428 272 -429 287 0 6 25 29 55 50 31 21 84 59 118 84 34 25 94 68 132
94 39 27 72 51 75 54 5 6 153 112 200 144 34 23 56 17 52 -13z m23 -1839 c106
-35 218 -57 333 -66 45 -4 82 -12 82 -17 0 -15 -175 -1 -280 22 -109 24 -229
65 -305 102 -71 36 -69 34 -61 46 3 5 36 -6 73 -25 37 -18 109 -46 158 -62z"/>
<path d="M1588 2394 c-16 -8 -28 -21 -28 -29 0 -24 17 -17 40 15 24 34 24 34
-12 14z"/>
<path d="M1467 2363 c-13 -12 -7 -43 8 -43 8 0 15 6 15 13 0 18 -15 38 -23 30z"/>
<path d="M1603 2325 c-38 -51 -40 -61 -14 -75 29 -15 31 -13 31 24 0 19 4 36
9 38 12 4 26 58 15 58 -5 -1 -24 -21 -41 -45z"/>
<path d="M1350 2336 c0 -8 11 -28 25 -45 43 -50 94 -55 72 -6 -9 19 -20 25
-44 25 -18 0 -33 5 -33 10 0 6 12 10 26 10 14 0 23 4 19 10 -10 16 -65 12 -65
-4z"/>
<path d="M1507 2317 c6 -29 39 -33 54 -6 6 12 8 23 6 26 -3 2 -11 -6 -18 -18
l-12 -23 -8 22 c-11 29 -27 28 -22 -1z"/>
<path d="M1694 2290 c1 -18 7 -35 14 -38 14 -4 12 23 -5 52 -9 17 -11 15 -9
-14z"/>
<path d="M1470 2271 c0 -16 -6 -32 -12 -35 -7 -3 -2 -3 12 0 34 9 36 12 22 34
-9 14 -9 20 1 23 7 3 4 6 -5 6 -13 1 -18 -7 -18 -28z"/>
<path d="M1868 2271 c-18 -16 -30 -32 -26 -36 10 -10 68 33 68 51 0 20 -5 18
-42 -15z"/>
<path d="M1778 2284 c-5 -4 -9 -23 -9 -43 -1 -36 -1 -36 -8 -6 -5 25 -8 27
-14 12 -4 -10 -7 -30 -7 -43 0 -30 -20 -32 -21 -1 -1 21 -1 21 -8 -3 -13 -45
10 -52 47 -16 28 27 33 39 30 70 -2 21 -6 34 -10 30z"/>
<path d="M1205 2260 c-10 -11 -12 -20 -6 -24 5 -4 13 -2 16 4 4 6 21 8 43 4
40 -7 35 4 -10 23 -22 10 -29 9 -43 -7z"/>
<path d="M1540 2244 c0 -9 8 -23 18 -30 16 -13 16 -13 0 -14 -11 0 -18 -8 -18
-20 0 -25 9 -25 26 -3 7 10 15 15 19 11 4 -4 -5 -22 -19 -41 -14 -19 -26 -38
-26 -43 0 -5 8 3 18 19 10 15 22 24 25 21 4 -4 2 -13 -4 -21 -14 -16 3 -17 19
-1 22 22 13 -5 -10 -29 -13 -14 -17 -23 -9 -23 11 0 11 -3 1 -15 -7 -8 -9 -15
-5 -15 4 0 14 8 22 18 13 16 14 15 10 -6 -5 -19 -3 -21 9 -11 8 7 12 20 8 31
-9 29 34 146 53 144 9 0 18 5 20 12 3 7 -3 12 -14 12 -11 0 -27 -16 -41 -40
-20 -36 -51 -58 -39 -27 3 6 8 19 12 28 4 12 -2 19 -24 27 -17 6 -31 16 -31
21 0 6 -4 11 -10 11 -5 0 -10 -7 -10 -16z"/>
<path d="M1930 2250 c0 -5 -5 -10 -10 -10 -19 0 -124 -64 -112 -68 7 -2 12
-10 12 -18 0 -8 7 -14 15 -14 8 0 15 6 15 13 0 13 29 43 42 42 9 0 58 47 58
57 0 4 -4 8 -10 8 -5 0 -10 -4 -10 -10z"/>
<path d="M1440 2210 c-25 -8 -25 -8 -2 -9 36 -2 70 -41 36 -41 -13 0 -15 -7
-10 -31 3 -17 6 -35 6 -40 0 -5 6 -9 14 -9 18 0 26 75 12 113 -11 28 -16 30
-56 17z"/>
<path d="M1383 2188 c2 -7 10 -12 16 -10 6 1 11 -10 11 -24 0 -14 4 -23 10
-19 6 3 10 -1 10 -9 0 -8 4 -17 9 -21 17 -10 -1 69 -18 82 -21 16 -44 16 -38
1z"/>
<path d="M1950 2185 c-22 -27 -5 -37 19 -11 19 20 21 26 9 26 -9 0 -21 -7 -28
-15z"/>
<path d="M1741 2146 c-18 -19 -28 -36 -23 -40 10 -6 68 62 60 70 -2 2 -19 -11
-37 -30z"/>
<path d="M1983 2154 c-17 -7 -34 -18 -38 -23 -6 -11 65 16 80 30 13 13 -4 10
-42 -7z"/>
<path d="M1271 2146 c-9 -10 -6 -17 13 -30 32 -21 73 -6 49 17 -3 4 -12 2 -20
-5 -18 -15 -29 -2 -13 17 10 12 10 15 -3 15 -8 0 -20 -6 -26 -14z"/>
<path d="M1766 2125 c-9 -14 -23 -36 -32 -50 -9 -14 -12 -25 -6 -25 6 0 22 21
36 47 28 49 30 70 2 28z"/>
<path d="M1985 2119 c-22 -14 -25 -19 -12 -19 11 0 17 -6 15 -16 -6 -32 18
-24 30 9 20 55 16 58 -33 26z"/>
<path d="M1287 2080 c3 -11 12 -20 20 -20 9 0 12 -6 9 -18 -4 -11 2 -22 14
-30 17 -10 20 -10 20 3 0 8 5 15 10 15 6 0 10 -4 10 -10 0 -5 7 -7 15 -4 20 8
1 44 -23 44 -13 0 -14 2 -3 9 7 5 12 14 9 21 -3 9 -9 8 -21 -5 -16 -15 -20
-16 -41 -1 -22 14 -24 14 -19 -4z"/>
<path d="M1802 2067 c-12 -7 -19 -16 -16 -20 14 -13 39 -7 52 13 15 24 0 27
-36 7z"/>
<path d="M1230 2041 c0 -12 -1 -24 -2 -28 -1 -5 5 -9 14 -11 12 -2 14 3 11 23
-7 32 -23 43 -23 16z"/>
<path d="M1946 2053 c-3 -4 -24 -6 -45 -5 -45 3 -70 -18 -46 -38 8 -7 15 -19
15 -26 0 -8 5 -14 11 -14 6 0 10 10 9 23 -3 36 -1 47 11 47 6 0 9 -7 6 -14 -4
-11 -1 -13 10 -9 25 10 6 -34 -31 -69 l-31 -30 40 22 c55 31 107 90 93 107
-11 14 -31 17 -42 6z"/>
<path d="M1467 2032 c-9 -13 5 -61 22 -75 22 -20 61 -31 61 -18 0 6 -7 11 -15
11 -18 0 -20 17 -2 23 9 4 9 7 0 18 -11 11 -16 9 -28 -7 -14 -19 -14 -19 -16
1 -1 11 -1 28 0 38 2 17 -14 24 -22 9z"/>
<path d="M1745 2029 c-10 -15 1 -22 24 -14 12 3 19 11 16 16 -8 12 -32 11 -40
-2z"/>
<path d="M1126 1995 c-3 -10 1 -15 13 -15 10 0 21 7 25 15 3 10 -1 15 -13 15
-10 0 -21 -7 -25 -15z"/>
<path d="M1292 1994 c2 -11 13 -23 26 -29 16 -7 22 -17 20 -34 -2 -14 4 -28
14 -35 26 -16 34 1 12 25 -19 22 -19 22 6 15 l25 -7 -22 17 c-13 9 -23 22 -23
29 0 7 -8 15 -17 19 -10 3 -24 9 -31 12 -10 4 -13 0 -10 -12z"/>
<path d="M1570 1986 c-15 -29 -7 -71 16 -80 17 -6 53 29 54 52 0 19 -18 14
-30 -8 -10 -18 -13 -19 -26 -6 -13 14 -13 18 2 41 9 14 12 25 7 25 -5 0 -15
-11 -23 -24z"/>
<path d="M2014 1979 c-21 -22 -24 -28 -10 -23 14 5 17 4 12 -4 -4 -7 -2 -12 4
-12 7 0 10 7 7 14 -4 9 2 17 13 21 10 3 21 12 24 20 9 26 -19 16 -50 -16z"/>
<path d="M1389 1980 c13 -11 30 -19 38 -16 7 3 13 -1 13 -9 0 -8 -4 -15 -10
-15 -18 0 -10 -22 10 -27 11 -3 20 -9 20 -14 0 -5 24 -9 53 -9 33 0 47 3 38 9
-7 5 -21 6 -32 4 -22 -6 -69 38 -69 66 0 12 -7 20 -17 20 -10 -1 -29 2 -43 6
l-25 7 24 -22z"/>
<path d="M1181 1976 c-14 -17 2 -31 42 -38 29 -6 34 1 15 20 -9 9 -9 12 -1 12
7 0 15 -4 18 -10 3 -5 11 -10 17 -10 6 0 5 6 -3 16 -8 10 -21 13 -36 9 -13 -3
-23 -1 -23 5 0 14 -16 12 -29 -4z"/>
<path d="M1648 1931 c-18 -28 -38 -51 -44 -51 -14 0 -27 -86 -15 -108 29 -57
66 -319 55 -395 -4 -31 -3 -38 5 -27 6 8 13 33 15 55 10 77 14 425 6 420 -5
-3 -12 4 -15 15 -5 16 -10 18 -20 10 -8 -7 -15 -7 -19 -1 -3 5 6 19 21 30 14
12 27 30 28 40 1 11 7 27 15 35 7 9 10 19 7 22 -3 3 -21 -17 -39 -45z m-16
-154 c-16 -30 -17 -31 -20 -9 -4 25 15 55 28 47 5 -3 1 -20 -8 -38z"/>
<path d="M1945 1955 c-46 -38 -85 -74 -85 -78 0 -2 14 -2 30 1 17 2 30 10 30
17 0 7 10 15 22 18 12 4 19 9 15 13 -4 4 0 16 10 26 25 28 11 30 -22 3z"/>
<path d="M1707 1952 c-10 -10 -14 -21 -11 -25 3 -3 -1 -16 -10 -29 -9 -12 -16
-32 -15 -43 1 -14 4 -10 11 13 12 34 34 46 25 12 -3 -11 -1 -20 4 -20 5 0 9
-8 9 -17 1 -12 6 -7 15 12 8 17 20 38 27 47 7 9 9 20 5 24 -4 4 -13 -1 -21
-11 -10 -13 -15 -15 -21 -6 -4 7 -2 18 4 24 13 13 15 37 3 37 -5 0 -16 -8 -25
-18z"/>
<path d="M1134 1915 c-3 -8 -15 -17 -26 -21 -20 -6 -20 -6 0 -27 11 -12 21
-27 23 -34 2 -7 9 -9 17 -4 9 6 10 14 3 34 -11 28 -5 57 10 57 5 0 8 -8 6 -17
-3 -24 15 -30 28 -9 7 12 6 19 -5 26 -22 14 -50 12 -56 -5z"/>
<path d="M1993 1917 c0 -18 44 -20 51 -2 4 11 -2 15 -23 15 -16 0 -28 -5 -28
-13z"/>
<path d="M1221 1873 c-1 -27 3 -33 19 -33 11 0 20 7 20 15 0 18 -19 20 -21 3
-1 -7 -5 1 -9 17 l-8 30 -1 -32z"/>
<path d="M1287 1891 c-25 -5 -27 -8 -15 -24 13 -18 15 -18 38 1 27 22 18 31
-23 23z"/>
<path d="M1337 1866 c-4 -10 4 -13 30 -12 37 1 58 -19 26 -26 -16 -4 -16 -5 3
-15 17 -10 25 -8 49 13 l28 24 -24 0 c-13 1 -35 7 -49 15 -32 18 -56 19 -63 1z"/>
<path d="M1445 1870 c28 -12 63 -12 70 0 4 6 -12 10 -42 9 -36 0 -43 -3 -28
-9z"/>
<path d="M1541 1867 c-6 -8 -8 -17 -4 -20 3 -4 -6 -16 -21 -28 -14 -11 -23
-25 -20 -31 4 -5 15 -1 28 11 12 12 26 18 29 14 4 -3 7 10 7 30 0 41 -2 43
-19 24z"/>
<path d="M1260 1800 c-9 -16 -8 -20 5 -20 8 0 15 6 15 13 0 9 2 9 8 -1 9 -13
42 -6 42 9 0 16 18 10 24 -8 5 -11 1 -22 -9 -29 -9 -7 -12 -14 -8 -17 5 -3 19
6 32 19 33 34 14 54 -50 54 -38 0 -51 -4 -59 -20z"/>
<path d="M1720 1784 l0 -35 28 15 c15 9 41 21 57 27 l30 12 -25 7 c-14 5 -40
8 -57 9 -31 1 -33 -1 -33 -35z"/>
<path d="M1407 1752 c-20 -22 -21 -32 -4 -32 18 1 52 50 34 50 -8 0 -21 -8
-30 -18z"/>
<path d="M1451 1744 c-12 -15 -21 -31 -21 -37 0 -6 1 -8 3 -6 1 2 15 19 31 37
17 17 25 32 19 32 -7 0 -21 -12 -32 -26z"/>
<path d="M2301 2716 c-18 -21 -1 -47 56 -89 27 -20 95 -83 152 -141 57 -58
112 -106 122 -106 10 0 23 8 28 18 15 28 -17 73 -128 180 -141 137 -201 173
-230 138z m96 -58 c128 -101 282 -268 248 -268 -3 0 -52 48 -109 108 -57 59
-131 127 -165 152 -33 25 -60 51 -61 58 0 6 2 12 4 12 3 0 40 -28 83 -62z"/>
<path d="M2827 2073 c-13 -12 -7 -50 19 -129 50 -153 59 -223 58 -444 0 -187
-3 -215 -28 -324 -27 -118 -28 -119 -8 -139 20 -19 20 -19 39 0 42 42 85 295
82 483 -2 187 -57 462 -106 537 -15 22 -42 30 -56 16z m51 -70 c94 -262 108
-599 36 -884 -15 -61 -28 -88 -38 -78 -3 3 3 38 14 79 29 115 50 277 50 386 0
158 -37 372 -86 496 -20 52 -22 74 -4 63 4 -2 16 -30 28 -62z"/>
<path d="M40 1675 c-7 -8 -16 -12 -21 -9 -16 10 -21 -46 -18 -199 3 -94 8
-159 15 -168 6 -8 15 -36 19 -63 7 -54 23 -86 42 -86 13 0 44 40 38 49 -12 20
-26 187 -25 313 0 120 -3 149 -16 162 -19 19 -19 19 -34 1z m25 -177 c0 -104
6 -204 14 -251 12 -69 11 -100 -4 -85 -10 10 -33 183 -36 268 -5 151 0 240 14
240 9 0 12 -41 12 -172z"/>
</g>
</svg>
